<mxfile host="app.diagrams.net" modified="2023-05-01T08:36:13.168Z" agent="Mozilla/5.0 (Macintosh; Intel Mac OS X 10_15_7) AppleWebKit/537.36 (KHTML, like Gecko) Chrome/112.0.0.0 Safari/537.36" etag="bqLOEu8CBgWwrhb7rCqM" version="21.1.1" type="github">
  <diagram name="Page-1" id="g7Ozh14g3-HEimZrbYkk">
    <mxGraphModel dx="1011" dy="628" grid="1" gridSize="10" guides="1" tooltips="1" connect="1" arrows="1" fold="1" page="1" pageScale="1" pageWidth="827" pageHeight="1169" math="0" shadow="0">
      <root>
        <mxCell id="0" />
        <mxCell id="1" parent="0" />
        <mxCell id="054j7oSa_Sl4RJEBO2h2-61" value="" style="rounded=0;whiteSpace=wrap;html=1;fillColor=#e1d5e7;dashed=1;strokeColor=#9673a6;" vertex="1" parent="1">
          <mxGeometry x="817" y="300" width="370" height="370" as="geometry" />
        </mxCell>
        <mxCell id="054j7oSa_Sl4RJEBO2h2-60" value="" style="rounded=0;whiteSpace=wrap;html=1;fillColor=#d5e8d4;dashed=1;strokeColor=#82b366;" vertex="1" parent="1">
          <mxGeometry x="240" y="300" width="510" height="370" as="geometry" />
        </mxCell>
        <mxCell id="054j7oSa_Sl4RJEBO2h2-57" value="" style="rounded=0;whiteSpace=wrap;html=1;fillColor=#D4E1F5;dashed=1;" vertex="1" parent="1">
          <mxGeometry x="80" y="300" width="120" height="370" as="geometry" />
        </mxCell>
        <mxCell id="054j7oSa_Sl4RJEBO2h2-4" value="system_user" style="whiteSpace=wrap;html=1;align=center;" vertex="1" parent="1">
          <mxGeometry x="90" y="355" width="100" height="40" as="geometry" />
        </mxCell>
        <mxCell id="054j7oSa_Sl4RJEBO2h2-5" value="wechat_user" style="whiteSpace=wrap;html=1;align=center;" vertex="1" parent="1">
          <mxGeometry x="350" y="355" width="100" height="40" as="geometry" />
        </mxCell>
        <mxCell id="054j7oSa_Sl4RJEBO2h2-6" value="merchant" style="whiteSpace=wrap;html=1;align=center;" vertex="1" parent="1">
          <mxGeometry x="610" y="355" width="100" height="40" as="geometry" />
        </mxCell>
        <mxCell id="054j7oSa_Sl4RJEBO2h2-9" value="activity" style="whiteSpace=wrap;html=1;align=center;" vertex="1" parent="1">
          <mxGeometry x="610" y="475" width="100" height="40" as="geometry" />
        </mxCell>
        <mxCell id="054j7oSa_Sl4RJEBO2h2-10" value="user_reservation" style="whiteSpace=wrap;html=1;align=center;" vertex="1" parent="1">
          <mxGeometry x="250" y="475" width="100" height="40" as="geometry" />
        </mxCell>
        <mxCell id="054j7oSa_Sl4RJEBO2h2-19" value="" style="fontSize=12;html=1;endArrow=ERoneToMany;rounded=0;exitX=0.5;exitY=1;exitDx=0;exitDy=0;entryX=0.5;entryY=0;entryDx=0;entryDy=0;" edge="1" parent="1" source="054j7oSa_Sl4RJEBO2h2-6" target="054j7oSa_Sl4RJEBO2h2-9">
          <mxGeometry width="100" height="100" relative="1" as="geometry">
            <mxPoint x="580" y="505" as="sourcePoint" />
            <mxPoint x="680" y="405" as="targetPoint" />
          </mxGeometry>
        </mxCell>
        <mxCell id="054j7oSa_Sl4RJEBO2h2-20" value="1" style="edgeLabel;html=1;align=center;verticalAlign=middle;resizable=0;points=[];" vertex="1" connectable="0" parent="054j7oSa_Sl4RJEBO2h2-19">
          <mxGeometry x="-0.76" y="-2" relative="1" as="geometry">
            <mxPoint as="offset" />
          </mxGeometry>
        </mxCell>
        <mxCell id="054j7oSa_Sl4RJEBO2h2-21" value="n" style="edgeLabel;html=1;align=center;verticalAlign=middle;resizable=0;points=[];" vertex="1" connectable="0" parent="054j7oSa_Sl4RJEBO2h2-19">
          <mxGeometry x="0.12" y="-1" relative="1" as="geometry">
            <mxPoint as="offset" />
          </mxGeometry>
        </mxCell>
        <mxCell id="054j7oSa_Sl4RJEBO2h2-42" value="" style="edgeStyle=none;rounded=0;orthogonalLoop=1;jettySize=auto;html=1;" edge="1" parent="1" source="054j7oSa_Sl4RJEBO2h2-22" target="054j7oSa_Sl4RJEBO2h2-41">
          <mxGeometry relative="1" as="geometry">
            <mxPoint x="921.4949803076968" y="412.3498441251352" as="targetPoint" />
          </mxGeometry>
        </mxCell>
        <mxCell id="054j7oSa_Sl4RJEBO2h2-46" style="edgeStyle=none;rounded=0;orthogonalLoop=1;jettySize=auto;html=1;" edge="1" parent="1" source="054j7oSa_Sl4RJEBO2h2-22" target="054j7oSa_Sl4RJEBO2h2-45">
          <mxGeometry relative="1" as="geometry" />
        </mxCell>
        <mxCell id="054j7oSa_Sl4RJEBO2h2-49" style="edgeStyle=none;rounded=0;orthogonalLoop=1;jettySize=auto;html=1;entryX=0.5;entryY=0;entryDx=0;entryDy=0;" edge="1" parent="1" source="054j7oSa_Sl4RJEBO2h2-22" target="054j7oSa_Sl4RJEBO2h2-48">
          <mxGeometry relative="1" as="geometry" />
        </mxCell>
        <mxCell id="054j7oSa_Sl4RJEBO2h2-22" value="operation_config" style="whiteSpace=wrap;html=1;align=center;" vertex="1" parent="1">
          <mxGeometry x="960" y="340" width="100" height="40" as="geometry" />
        </mxCell>
        <mxCell id="054j7oSa_Sl4RJEBO2h2-28" value="" style="edgeStyle=orthogonalEdgeStyle;rounded=0;orthogonalLoop=1;jettySize=auto;html=1;" edge="1" parent="1" source="054j7oSa_Sl4RJEBO2h2-25" target="054j7oSa_Sl4RJEBO2h2-27">
          <mxGeometry relative="1" as="geometry" />
        </mxCell>
        <mxCell id="054j7oSa_Sl4RJEBO2h2-25" value="user_point" style="whiteSpace=wrap;html=1;align=center;" vertex="1" parent="1">
          <mxGeometry x="420" y="475" width="100" height="40" as="geometry" />
        </mxCell>
        <mxCell id="054j7oSa_Sl4RJEBO2h2-27" value="user_point_record" style="whiteSpace=wrap;html=1;align=center;" vertex="1" parent="1">
          <mxGeometry x="420" y="595" width="100" height="40" as="geometry" />
        </mxCell>
        <mxCell id="054j7oSa_Sl4RJEBO2h2-30" value="" style="fontSize=12;html=1;endArrow=ERoneToMany;rounded=0;exitX=0.5;exitY=1;exitDx=0;exitDy=0;entryX=0.5;entryY=1;entryDx=0;entryDy=0;edgeStyle=orthogonalEdgeStyle;fillColor=#97D077;strokeColor=#97D077;" edge="1" parent="1" source="054j7oSa_Sl4RJEBO2h2-9" target="054j7oSa_Sl4RJEBO2h2-10">
          <mxGeometry width="100" height="100" relative="1" as="geometry">
            <mxPoint x="670" y="405" as="sourcePoint" />
            <mxPoint x="670" y="485" as="targetPoint" />
            <Array as="points">
              <mxPoint x="660" y="545" />
              <mxPoint x="300" y="545" />
            </Array>
          </mxGeometry>
        </mxCell>
        <mxCell id="054j7oSa_Sl4RJEBO2h2-31" value="1" style="edgeLabel;html=1;align=center;verticalAlign=middle;resizable=0;points=[];" vertex="1" connectable="0" parent="054j7oSa_Sl4RJEBO2h2-30">
          <mxGeometry x="-0.76" y="-2" relative="1" as="geometry">
            <mxPoint as="offset" />
          </mxGeometry>
        </mxCell>
        <mxCell id="054j7oSa_Sl4RJEBO2h2-32" value="n" style="edgeLabel;html=1;align=center;verticalAlign=middle;resizable=0;points=[];" vertex="1" connectable="0" parent="054j7oSa_Sl4RJEBO2h2-30">
          <mxGeometry x="0.12" y="-1" relative="1" as="geometry">
            <mxPoint as="offset" />
          </mxGeometry>
        </mxCell>
        <mxCell id="054j7oSa_Sl4RJEBO2h2-35" value="" style="fontSize=12;html=1;endArrow=ERoneToMany;rounded=0;exitX=0.5;exitY=1;exitDx=0;exitDy=0;entryX=0.5;entryY=0;entryDx=0;entryDy=0;" edge="1" parent="1" source="054j7oSa_Sl4RJEBO2h2-5" target="054j7oSa_Sl4RJEBO2h2-10">
          <mxGeometry width="100" height="100" relative="1" as="geometry">
            <mxPoint x="670" y="405" as="sourcePoint" />
            <mxPoint x="670" y="485" as="targetPoint" />
          </mxGeometry>
        </mxCell>
        <mxCell id="054j7oSa_Sl4RJEBO2h2-36" value="1" style="edgeLabel;html=1;align=center;verticalAlign=middle;resizable=0;points=[];" vertex="1" connectable="0" parent="054j7oSa_Sl4RJEBO2h2-35">
          <mxGeometry x="-0.76" y="-2" relative="1" as="geometry">
            <mxPoint as="offset" />
          </mxGeometry>
        </mxCell>
        <mxCell id="054j7oSa_Sl4RJEBO2h2-37" value="n" style="edgeLabel;html=1;align=center;verticalAlign=middle;resizable=0;points=[];" vertex="1" connectable="0" parent="054j7oSa_Sl4RJEBO2h2-35">
          <mxGeometry x="0.12" y="-1" relative="1" as="geometry">
            <mxPoint as="offset" />
          </mxGeometry>
        </mxCell>
        <mxCell id="054j7oSa_Sl4RJEBO2h2-38" value="" style="fontSize=12;html=1;endArrow=ERmandOne;startArrow=ERmandOne;rounded=0;entryX=0.5;entryY=1;entryDx=0;entryDy=0;exitX=0.5;exitY=0;exitDx=0;exitDy=0;" edge="1" parent="1" source="054j7oSa_Sl4RJEBO2h2-25" target="054j7oSa_Sl4RJEBO2h2-5">
          <mxGeometry width="100" height="100" relative="1" as="geometry">
            <mxPoint x="430" y="535" as="sourcePoint" />
            <mxPoint x="530" y="435" as="targetPoint" />
          </mxGeometry>
        </mxCell>
        <mxCell id="054j7oSa_Sl4RJEBO2h2-39" value="1" style="edgeLabel;html=1;align=center;verticalAlign=middle;resizable=0;points=[];" vertex="1" connectable="0" parent="054j7oSa_Sl4RJEBO2h2-38">
          <mxGeometry x="0.6974" y="2" relative="1" as="geometry">
            <mxPoint as="offset" />
          </mxGeometry>
        </mxCell>
        <mxCell id="054j7oSa_Sl4RJEBO2h2-40" value="1" style="edgeLabel;html=1;align=center;verticalAlign=middle;resizable=0;points=[];" vertex="1" connectable="0" parent="054j7oSa_Sl4RJEBO2h2-38">
          <mxGeometry x="-0.521" relative="1" as="geometry">
            <mxPoint as="offset" />
          </mxGeometry>
        </mxCell>
        <mxCell id="054j7oSa_Sl4RJEBO2h2-41" value="banner" style="ellipse;whiteSpace=wrap;html=1;" vertex="1" parent="1">
          <mxGeometry x="850" y="410" width="80" height="30" as="geometry" />
        </mxCell>
        <mxCell id="054j7oSa_Sl4RJEBO2h2-45" value="导航配置" style="ellipse;whiteSpace=wrap;html=1;" vertex="1" parent="1">
          <mxGeometry x="950" y="410" width="80" height="30" as="geometry" />
        </mxCell>
        <mxCell id="054j7oSa_Sl4RJEBO2h2-48" value="热词配置" style="ellipse;whiteSpace=wrap;html=1;" vertex="1" parent="1">
          <mxGeometry x="1040" y="410" width="80" height="30" as="geometry" />
        </mxCell>
        <mxCell id="054j7oSa_Sl4RJEBO2h2-54" style="edgeStyle=none;rounded=0;orthogonalLoop=1;jettySize=auto;html=1;" edge="1" parent="1" source="054j7oSa_Sl4RJEBO2h2-50" target="054j7oSa_Sl4RJEBO2h2-53">
          <mxGeometry relative="1" as="geometry" />
        </mxCell>
        <mxCell id="054j7oSa_Sl4RJEBO2h2-56" style="edgeStyle=none;rounded=0;orthogonalLoop=1;jettySize=auto;html=1;" edge="1" parent="1" source="054j7oSa_Sl4RJEBO2h2-50" target="054j7oSa_Sl4RJEBO2h2-55">
          <mxGeometry relative="1" as="geometry" />
        </mxCell>
        <mxCell id="054j7oSa_Sl4RJEBO2h2-50" value="dictionary" style="whiteSpace=wrap;html=1;align=center;" vertex="1" parent="1">
          <mxGeometry x="960" y="480" width="100" height="40" as="geometry" />
        </mxCell>
        <mxCell id="054j7oSa_Sl4RJEBO2h2-53" value="活动类型" style="ellipse;whiteSpace=wrap;html=1;" vertex="1" parent="1">
          <mxGeometry x="920" y="560" width="80" height="30" as="geometry" />
        </mxCell>
        <mxCell id="054j7oSa_Sl4RJEBO2h2-55" value="商家类型" style="ellipse;whiteSpace=wrap;html=1;" vertex="1" parent="1">
          <mxGeometry x="1020" y="560" width="80" height="30" as="geometry" />
        </mxCell>
        <mxCell id="054j7oSa_Sl4RJEBO2h2-63" value="系统" style="text;html=1;align=center;verticalAlign=middle;resizable=0;points=[];autosize=1;strokeColor=none;fillColor=none;" vertex="1" parent="1">
          <mxGeometry x="110" y="270" width="50" height="30" as="geometry" />
        </mxCell>
        <mxCell id="054j7oSa_Sl4RJEBO2h2-64" value="业务" style="text;html=1;align=center;verticalAlign=middle;resizable=0;points=[];autosize=1;strokeColor=none;fillColor=none;" vertex="1" parent="1">
          <mxGeometry x="445" y="270" width="50" height="30" as="geometry" />
        </mxCell>
        <mxCell id="054j7oSa_Sl4RJEBO2h2-65" value="运营" style="text;html=1;align=center;verticalAlign=middle;resizable=0;points=[];autosize=1;strokeColor=none;fillColor=none;" vertex="1" parent="1">
          <mxGeometry x="977" y="270" width="50" height="30" as="geometry" />
        </mxCell>
      </root>
    </mxGraphModel>
  </diagram>
</mxfile>
